<?xml version="1.0" encoding="UTF-8" standalone="no"?>
<!-- Created with Inkscape (http://www.inkscape.org/) -->

<svg
   width="52.529205mm"
   height="52.132339mm"
   viewBox="0 0 52.529205 52.132339"
   version="1.1"
   id="svg1"
   xmlns:inkscape="http://www.inkscape.org/namespaces/inkscape"
   xmlns:sodipodi="http://sodipodi.sourceforge.net/DTD/sodipodi-0.dtd"
   xmlns="http://www.w3.org/2000/svg"
   xmlns:svg="http://www.w3.org/2000/svg">
  <sodipodi:namedview
     id="namedview1"
     pagecolor="#505050"
     bordercolor="#eeeeee"
     borderopacity="1"
     inkscape:showpageshadow="0"
     inkscape:pageopacity="0"
     inkscape:pagecheckerboard="0"
     inkscape:deskcolor="#505050"
     inkscape:document-units="mm"
     inkscape:export-bgcolor="#ffffff00">
    <inkscape:page
       x="0"
       y="2.4881296e-38"
       width="52.529205"
       height="52.132339"
       id="page2"
       margin="0"
       bleed="0" />
  </sodipodi:namedview>
  <defs
     id="defs1" />
  <g
     inkscape:label="Layer 1"
     inkscape:groupmode="layer"
     id="layer1"
     transform="translate(-125.14791,-45.772919)">
    <path
       style="display:inline;fill:none;stroke:#05b6c8;stroke-width:1.3;stroke-linecap:round;stroke-dasharray:none;stroke-opacity:1"
       d="m 149.37866,55.817677 c -1.54891,-1.774566 -2.61755,-2.75813 -4.64674,-5.325943 -0.5526,-0.699283 -0.95373,-1.490319 -2.70035,-2.808055 -0.49914,-0.376577 -5.08685,-2.878514 -7.94671,0.407523 -3.43136,3.942688 -5.9831,9.300235 -6.45247,10.595623 -0.45036,1.242918 -3.36912,9.692941 -0.74712,17.727295 1.50262,4.604357 1.56217,4.143163 4.279,9.033451 0.0357,0.284514 8.03233,10.825166 19.35739,11.750276 0.80352,0.03607 16.76025,1.45853 23.84015,-12.22572 0,0 8.55801,-15.757596 -5.09405,-26.556983 0,0 -6.52038,-6.927908 -19.15363,-2.648906 0,0 -11.20691,7.043856 -8.15048,18.794132 0,0 2.49628,11.314414 14.80671,10.080394 2.33491,-0.182783 12.45732,-4.174655 9.27359,-15.055083 0,0 -2.08021,-6.693587 -9.38034,-6.021207 -0.0474,0.142113 -7.61925,-0.243342 -7.63632,8.548836 0,0 0.14408,6.243532 7.44421,6.291559 0,0 6.43564,-0.288163 4.65863,-7.63632 0,0 -1.48884,-4.322445 -6.24353,-2.54544 0,0 -4.70666,2.257277 -0.96054,6.627749 0,0 2.92965,2.305304 5.28299,-0.480272 0,0 0.67238,-3.361901 -2.49742,-4.082309 0,0 -2.44938,-0.432244 -1.2487,2.833603 0,0 2.06516,0 2.44938,1.440815"
       id="path7"
       sodipodi:nodetypes="cssssscccccccccccccccccc" />
    <g
       id="g44"
       style="display:inline"
       transform="translate(70.646951,15.489281)">
      <path
         style="opacity:1;fill:none;stroke:#05b6c8;stroke-width:1.3;stroke-linecap:round;stroke-dasharray:none;stroke-opacity:1"
         d="m 55.75954,47.642949 c 0.0739,-0.110852 1.99474,-3.618564 4.425528,-5.164605 2.430788,-1.546041 5.707712,-0.361977 11.999763,5.500795"
         id="path8"
         sodipodi:nodetypes="csc" />
      <path
         style="opacity:1;fill:none;stroke:#05b6c8;stroke-width:1.3;stroke-linecap:round;stroke-dasharray:none;stroke-opacity:1"
         d="m 70.941951,57.756787 c 0.245208,0.20434 -4.202181,-5.207177 -9.94745,-3.966361 -5.412418,1.16893 -4.480192,7.743828 -4.514554,7.732374"
         id="path9"
         sodipodi:nodetypes="csc" />
      <path
         style="opacity:1;fill:none;stroke:#05b6c8;stroke-width:1.3;stroke-linecap:round;stroke-dasharray:none;stroke-opacity:1"
         d="M 61.762936,71.464423 Z"
         id="path10" />
      <path
         style="opacity:1;fill:none;stroke:#05b6c8;stroke-width:1.3;stroke-linecap:round;stroke-dasharray:none;stroke-opacity:1"
         d="m 62.195179,71.944695 c 0,0 -1.305119,-4.418826 1.584898,-6.675776 4.023324,-3.142003 9.82785,-2.607137 10.421895,-0.528299"
         id="path11"
         sodipodi:nodetypes="csc" />
      <path
         style="opacity:1;fill:none;stroke:#05b6c8;stroke-width:1.3;stroke-linecap:round;stroke-dasharray:none;stroke-opacity:1"
         d="m 72.831491,79.843457 c 0,0 -3.048019,-1.84734 -1.943394,-5.833594 1.104625,-3.986255 5.475097,-6.147477 7.588292,-6.003396"
         id="path12"
         sodipodi:nodetypes="csc" />
      <path
         style="opacity:1;fill:none;stroke:#05b6c8;stroke-width:1.3;stroke-linecap:round;stroke-dasharray:none;stroke-opacity:1"
         d="m 83.471215,81.598155 c 0,0 -2.584481,-1.762746 -2.737549,-5.234961 -0.117644,-2.668654 2.20925,-6.43564 4.226391,-7.156048"
         id="path13"
         sodipodi:nodetypes="csc" />
      <path
         style="opacity:1;fill:none;stroke:#05b6c8;stroke-width:1.3;stroke-linecap:round;stroke-dasharray:none;stroke-opacity:1"
         d="m 91.107534,67.045923 c 0,0 -2.497413,3.457957 -1.488842,6.339587 1.00857,2.88163 4.802717,4.082309 6.195505,4.610607"
         id="path14"
         sodipodi:nodetypes="csc" />
      <path
         style="opacity:1;fill:none;stroke:#05b6c8;stroke-width:1.3;stroke-linecap:round;stroke-dasharray:none;stroke-opacity:1"
         d="m 94.853653,63.059669 c -0.0072,1.565322 0.768145,5.518513 2.641494,6.483667 3.287913,1.693942 6.099453,-0.192108 6.099453,-0.192108"
         id="path15"
         sodipodi:nodetypes="csc" />
      <path
         style="opacity:1;fill:none;stroke:#05b6c8;stroke-width:1.3;stroke-linecap:round;stroke-dasharray:none;stroke-opacity:1"
         d="m 95.958278,57.248382 c 0,0 2.328236,4.459579 5.379042,4.610608 3.61517,0.178967 5.04285,-3.217821 5.04285,-3.217821"
         id="path16"
         sodipodi:nodetypes="csc" />
      <path
         style="opacity:1;fill:none;stroke:#05b6c8;stroke-width:1.3;stroke-linecap:round;stroke-dasharray:none;stroke-opacity:1"
         d="m 94.661544,52.569853 c 1.248706,0.912516 3.409929,1.508736 5.523126,1.124519 2.1132,-0.384218 3.45795,-4.130337 3.3619,-5.331015"
         id="path17"
         sodipodi:nodetypes="csc" />
      <path
         style="opacity:1;fill:none;stroke:#05b6c8;stroke-width:1.3;stroke-linecap:round;stroke-dasharray:none;stroke-opacity:1"
         d="m 91.875969,49.275873 c 2.113195,0.288167 3.8537,-0.02871 4.994825,-1.20068 1.777006,-1.825032 1.68095,-3.794146 1.392787,-5.234961"
         id="path18"
         sodipodi:nodetypes="csc" />
      <path
         style="opacity:1;fill:none;stroke:#05b6c8;stroke-width:1.3;stroke-linecap:round;stroke-dasharray:none;stroke-opacity:1"
         d="m 88.994338,48.075193 c 1.20068,-1.200679 2.862059,-3.111025 3.025712,-5.186934 0.105125,-1.333498 -1.299147,-3.127592 -2.929657,-3.8902"
         id="path19"
         sodipodi:nodetypes="csc" />
      <path
         style="opacity:1;fill:none;stroke:#05b6c8;stroke-width:1.3;stroke-linecap:round;stroke-dasharray:none;stroke-opacity:1"
         d="m 81.654423,39.710226 c 1.873059,0.624353 3.305634,1.449055 3.929987,2.88987 0.518764,1.197148 0.240136,3.794146 -0.576322,5.379043"
         id="path20"
         sodipodi:nodetypes="csc" />
      <path
         style="display:inline;opacity:1;fill:none;stroke:#05b6c8;stroke-width:1.3;stroke-linecap:round;stroke-dasharray:none;stroke-opacity:1"
         d="m 75.738841,43.656694 c 0.624353,-0.144082 1.921086,0.144077 2.689521,0.432244 0.768435,0.288163 1.344761,2.257277 1.921087,3.121767 0.26238,0.393569 1.296733,1.584896 1.68095,1.825032"
         id="path21"
         sodipodi:nodetypes="cssc" />
      <path
         style="opacity:1;fill:none;stroke:#05b6c8;stroke-width:1.3;stroke-linecap:round;stroke-dasharray:none;stroke-opacity:1"
         d="m 79.965231,50.812742 c -1.728978,0.576322 -2.641494,0.240136 -3.21782,-0.09605 -1.174105,-0.684886 -1.620941,-1.225795 -2.305304,-1.536869 -0.528299,-0.240136 -2.641494,-0.816462 -2.017141,-0.67238"
         id="path22"
         sodipodi:nodetypes="cssc" />
      <path
         style="opacity:1;fill:none;stroke:#05b6c8;stroke-width:1.3;stroke-linecap:round;stroke-dasharray:none;stroke-opacity:1"
         d="m 78.188227,54.89505 c -0.768436,0.432245 -1.257549,0.628834 -2.017141,0.480272 -0.927034,-0.18131 -1.935083,-0.837626 -2.893284,-0.576326 -0.787698,0.214804 -2.130675,1.036704 -2.257276,2.449386"
         id="path23"
         sodipodi:nodetypes="cssc" />
      <path
         style="opacity:1;fill:none;stroke:#05b6c8;stroke-width:1.3;stroke-linecap:round;stroke-dasharray:none;stroke-opacity:1"
         d="m 78.428362,57.776681 c -0.288163,0.864489 -0.236707,1.5392 -1.536869,1.921086 -0.829302,0.243584 -1.978809,-0.332222 -2.641494,0.528299 -0.756232,0.981995 -0.768435,2.593467 -0.192109,4.178365"
         id="path24"
         sodipodi:nodetypes="cssc" />
      <path
         style="opacity:1;fill:none;stroke:#05b6c8;stroke-width:1.3;stroke-linecap:round;stroke-dasharray:none;stroke-opacity:1"
         d="m 80.15734,60.802392 c 0.192109,0.960543 0.03803,1.41936 -0.624353,2.257277 -0.679178,0.859159 -1.440815,0.384217 -1.87306,1.440815 -0.270335,0.660818 -0.384217,1.728978 0.432245,3.265847"
         id="path25"
         sodipodi:nodetypes="cssc" />
      <path
         style="opacity:1;fill:none;stroke:#05b6c8;stroke-width:1.3;stroke-linecap:round;stroke-dasharray:none;stroke-opacity:1"
         d="m 83.423187,62.627424 c 0,0.768435 0.192109,1.392788 -0.144081,2.305305 -0.189306,0.51383 -1.008571,1.152652 -0.864489,1.825032 0.144081,0.67238 0.624353,1.777005 2.209249,2.353331"
         id="path26"
         sodipodi:nodetypes="cssc" />
      <path
         style="opacity:1;fill:none;stroke:#05b6c8;stroke-width:1.3;stroke-linecap:round;stroke-dasharray:none;stroke-opacity:1"
         d="m 86.833116,62.723479 c 0.144082,1.873059 -0.01492,2.193113 -0.09605,3.361902 -0.04987,0.718515 1.047633,1.512444 3.457956,1.584896"
         id="path27"
         sodipodi:nodetypes="csc" />
      <path
         style="opacity:1;fill:none;stroke:#05b6c8;stroke-width:1.3;stroke-linecap:round;stroke-dasharray:none;stroke-opacity:1"
         d="m 89.282502,61.955044 c 0.432245,0.624354 1.056598,1.584897 1.680951,2.065168 0.624353,0.480272 1.34476,0.672381 1.873059,0.912517"
         id="path28"
         sodipodi:nodetypes="csc" />
      <path
         style="opacity:1;fill:none;stroke:#05b6c8;stroke-width:1.3;stroke-linecap:round;stroke-dasharray:none;stroke-opacity:1"
         d="m 90.723317,59.937904 c 1.152652,0.04803 2.408995,0.403121 2.881629,0.384216 1.20068,-0.04803 1.728979,-0.528298 2.257278,-1.296733"
         id="path29"
         sodipodi:nodetypes="csc" />
      <path
         style="opacity:1;fill:none;stroke:#05b6c8;stroke-width:1.3;stroke-linecap:round;stroke-dasharray:none;stroke-opacity:1"
         d="m 90.915425,57.632599 c 0.816463,-1.00857 0.912517,-1.152651 1.728979,-1.296733 0.816461,-0.144081 0.432244,0.192109 1.104624,-0.288163 0.67238,-0.480272 1.104625,-0.720408 1.680951,-1.87306"
         id="path30"
         sodipodi:nodetypes="cssc" />
      <path
         style="opacity:1;fill:none;stroke:#05b6c8;stroke-width:1.3;stroke-linecap:round;stroke-dasharray:none;stroke-opacity:1"
         d="m 90.146991,53.838453 c 1.00857,-0.960543 1.68095,-1.104624 2.113195,-1.873059 0.315901,-0.561601 0.288163,-1.344761 0.240136,-1.921087"
         id="path31"
         sodipodi:nodetypes="csc" />
      <path
         style="opacity:1;fill:none;stroke:#05b6c8;stroke-width:1.3;stroke-linecap:round;stroke-dasharray:none;stroke-opacity:1"
         d="m 88.12985,52.301584 c 0.816462,-0.816462 1.326067,-1.250183 1.584896,-2.065169 0.232732,-0.732816 0.240136,-1.248706 -0.04803,-1.825032"
         id="path32"
         sodipodi:nodetypes="csc" />
      <path
         style="opacity:1;fill:none;stroke:#05b6c8;stroke-width:1.3;stroke-linecap:round;stroke-dasharray:none;stroke-opacity:1"
         d="M 86.400872,51.869339 C 85.9206,50.908796 86.112709,50.764715 86.304818,50.236416 86.651224,49.283799 86.257271,48.790805 85.680464,48.12322"
         id="path33"
         sodipodi:nodetypes="csc" />
      <path
         style="opacity:1;fill:none;stroke:#05b6c8;stroke-width:1.3;stroke-linecap:round;stroke-dasharray:none;stroke-opacity:1"
         d="m 84.671894,52.445666 c -1.777006,-1.296734 -1.200679,-1.53687 -2.449386,-2.929658"
         id="path34"
         sodipodi:nodetypes="cc" />
      <path
         style="opacity:1;fill:none;stroke:#05b6c8;stroke-width:1.3;stroke-linecap:round;stroke-dasharray:none;stroke-opacity:1"
         d="m 82.70278,53.646344 c -0.67238,0 -1.296734,-0.288162 -1.536869,-0.576325 -0.240136,-0.288163 -1.008571,-0.912517 -1.152652,-1.632924"
         id="path35"
         sodipodi:nodetypes="csc" />
      <path
         style="opacity:1;fill:none;stroke:#05b6c8;stroke-width:1.3;stroke-linecap:round;stroke-dasharray:none;stroke-opacity:1"
         d="m 81.742237,55.75954 c -0.768435,0.240136 -0.960544,0.33619 -1.488843,0.432244 -0.528298,0.09605 -1.584896,-0.33619 -1.728977,-0.576326"
         id="path36"
         sodipodi:nodetypes="csc" />
      <path
         style="opacity:1;fill:none;stroke:#05b6c8;stroke-width:1.3;stroke-linecap:round;stroke-dasharray:none;stroke-opacity:1"
         d="m 81.934345,57.440491 c -0.09605,0.768435 -0.720408,1.488842 -1.200679,1.536869 -0.480272,0.04803 -0.960544,0.09605 -1.680951,-0.480272"
         id="path37"
         sodipodi:nodetypes="csc" />
      <path
         style="opacity:1;fill:none;stroke:#05b6c8;stroke-width:1.3;stroke-linecap:round;stroke-dasharray:none;stroke-opacity:1"
         d="m 83.71135,59.889876 c 0,0 -0.144081,1.296734 -0.384217,1.392788 -0.240136,0.09605 -0.720407,0.768435 -2.017141,0.33619"
         id="path38"
         sodipodi:nodetypes="csc" />
      <path
         style="opacity:1;fill:none;stroke:#05b6c8;stroke-width:1.3;stroke-linecap:round;stroke-dasharray:none;stroke-opacity:1"
         d="m 86.700735,60.313556 c -0.03396,0.373563 0.135841,1.460293 0.06792,2.139499"
         id="path39"
         sodipodi:nodetypes="cc" />
      <path
         style="opacity:1;fill:none;stroke:#05b6c8;stroke-width:1.3;stroke-linecap:round;stroke-dasharray:none;stroke-opacity:1"
         d="m 88.840237,58.581578 c 0.237721,0.06792 1.086729,0.679206 1.358414,0.849008"
         id="path40" />
      <path
         style="opacity:1;fill:none;stroke:#05b6c8;stroke-width:1.3;stroke-linecap:round;stroke-dasharray:none;stroke-opacity:1"
         d="m 88.432713,56.204355 c 0.305641,-0.237723 1.460294,-1.256533 1.596136,-1.256533"
         id="path41" />
      <path
         style="opacity:1;fill:none;stroke:#05b6c8;stroke-width:1.3;stroke-linecap:round;stroke-dasharray:none;stroke-opacity:1"
         d="m 86.666775,54.472376 c -0.03396,-0.645244 0.407525,-1.494253 0.475443,-1.664054"
         id="path42" />
      <path
         style="opacity:1;fill:none;stroke:#05b6c8;stroke-width:1.3;stroke-linecap:round;stroke-dasharray:none;stroke-opacity:1"
         d="M 84.25559,55.219504 C 83.983908,55.015743 83.304702,54.710099 83.100941,53.929012"
         id="path43" />
      <path
         style="opacity:1;fill:none;stroke:#05b6c8;stroke-width:1.3;stroke-linecap:round;stroke-dasharray:none;stroke-opacity:1"
         d="m 84.866878,57.766529 c -0.916931,0.645246 -1.596136,0.611288 -2.071582,0.509405"
         id="path44"
         sodipodi:nodetypes="cc" />
    </g>
    <g
       id="g390"
       style="display:inline"
       transform="translate(70.646951,15.489281)">
      <path
         style="opacity:1;fill:#05b6c8;fill-opacity:1;stroke:#05b6c8;stroke-width:0.1;stroke-linecap:round;stroke-dasharray:none;stroke-opacity:1"
         d="m 75.786867,37.869419 c 0,0 2.305305,2.449386 0.240137,4.466527 -2.065168,2.017141 3.073738,-2.329317 3.073738,-2.329317 z"
         id="path45"
         sodipodi:nodetypes="cscc" />
      <path
         style="fill:#05b6c8;fill-opacity:1;stroke:#05b6c8;stroke-width:0.1;stroke-linecap:round;stroke-dasharray:none;stroke-opacity:1"
         d="m 70.171497,46.947913 c 0,0 1.440816,1.392788 0.648368,3.962242 -0.850787,2.758612 2.35333,-2.401358 2.35333,-2.401358 z"
         id="path45-4"
         sodipodi:nodetypes="cscc" />
      <path
         style="fill:#05b6c8;fill-opacity:1;stroke:#05b6c8;stroke-width:0.1;stroke-linecap:round;stroke-dasharray:none;stroke-opacity:1"
         d="m 68.297135,55.869102 c 0,0 1.584897,0.576326 2.929658,4.490541 0.937982,2.730195 0.384217,-2.353331 0.384217,-2.353331 z"
         id="path45-1"
         sodipodi:nodetypes="cscc" />
      <path
         style="opacity:1;fill:#05b6c8;fill-opacity:1;stroke:#05b6c8;stroke-width:0.1;stroke-linecap:round;stroke-dasharray:none;stroke-opacity:1"
         d="m 82.014208,67.071662 c 0.679206,1.833857 -1.891388,1.154171 -1.392373,1.256533 1.324453,0.271683 2.648907,0.543364 2.648907,0.543364 z"
         id="path366"
         sodipodi:nodetypes="cscc" />
      <path
         style="opacity:1;fill:#05b6c8;fill-opacity:1;stroke:#05b6c8;stroke-width:0.1;stroke-linecap:round;stroke-dasharray:none;stroke-opacity:1"
         d="m 87.278061,67.547106 c 0.611285,0.203763 0.611285,0.88297 -0.441484,0.98485 -1.052772,0.101881 1.562174,-0.03396 1.562174,-0.03396 l -0.169802,-0.950891 z"
         id="path367" />
      <path
         style="opacity:1;fill:#05b6c8;fill-opacity:1;stroke:#05b6c8;stroke-width:0.1;stroke-linecap:round;stroke-dasharray:none;stroke-opacity:1"
         d="m 76.886199,65.441565 c 0.06792,0.543366 -0.509405,0.747127 -1.154653,0.203763 -0.645244,-0.543367 0.611288,1.12069 0.611288,1.12069 l 1.188612,-0.339603 z"
         id="path368" />
      <path
         style="opacity:1;fill:#05b6c8;fill-opacity:1;stroke:#05b6c8;stroke-width:0.1;stroke-linecap:round;stroke-dasharray:none;stroke-opacity:1"
         d="m 73.320364,60.721078 c -0.169802,0.611288 -0.577326,0.509405 -0.916929,-0.101881 -0.339604,-0.611285 0.679206,1.833859 0.679206,1.833859 l 0.407525,-1.12069 z"
         id="path369" />
      <path
         style="opacity:1;fill:#05b6c8;fill-opacity:1;stroke:#05b6c8;stroke-width:0.1;stroke-linecap:round;stroke-dasharray:none;stroke-opacity:1"
         d="m 72.267592,54.574259 c -0.407524,0.339604 -0.747128,0.203761 -0.781087,-0.713168 -0.03396,-0.91693 -0.475445,1.698016 -0.475445,1.698016 l 0.747127,0.06792 z"
         id="path370" />
      <path
         style="opacity:1;fill:#05b6c8;fill-opacity:1;stroke:#05b6c8;stroke-width:0.1;stroke-linecap:round;stroke-dasharray:none;stroke-opacity:1"
         d="m 74.339173,48.495359 c -0.441484,-0.06792 -1.279885,-0.01515 -0.747127,-1.392375 0.299116,-0.773238 -0.815049,0.91693 -0.815049,0.91693 l 0.611288,0.611285 z"
         id="path371"
         sodipodi:nodetypes="csccc" />
      <path
         style="opacity:1;fill:#05b6c8;fill-opacity:1;stroke:#05b6c8;stroke-width:0.1;stroke-linecap:round;stroke-dasharray:none;stroke-opacity:1"
         d="m 77.871049,43.299427 c -0.78109,-0.10188 -0.463767,-0.672494 -0.161313,-0.916928 0.155057,-0.125313 -1.298983,0.781086 -1.298983,0.781086 l 0.747128,0.441486 z"
         id="path372"
         sodipodi:nodetypes="csccc" />
      <path
         style="opacity:1;fill:#05b6c8;fill-opacity:1;stroke:#05b6c8;stroke-width:0.1;stroke-linecap:round;stroke-dasharray:none;stroke-opacity:1"
         d="m 84.340493,40.310919 c -0.356585,-0.271685 -0.628267,-0.526386 -0.06792,-0.594307 0.560346,-0.06792 -0.849008,-0.203761 -0.849008,-0.203761 l -0.0849,0.730146 z"
         id="path373" />
      <path
         style="opacity:1;fill:#05b6c8;fill-opacity:1;stroke:#05b6c8;stroke-width:0.1;stroke-linecap:round;stroke-dasharray:none;stroke-opacity:1"
         d="m 91.760825,40.51468 c -0.237723,-0.288663 -0.118862,-0.526386 0.322625,-0.441484 0.441483,0.0849 -0.849011,-0.458465 -0.849011,-0.458465 l -0.101881,1.001829 z"
         id="path374" />
      <path
         style="opacity:1;fill:#05b6c8;fill-opacity:1;stroke:#05b6c8;stroke-width:0.1;stroke-linecap:round;stroke-dasharray:none;stroke-opacity:1"
         d="m 98.909475,45.133284 c 0.03396,-0.509405 0.220744,-1.05277 0.611288,-0.696186 0.390543,0.356585 0.15282,-0.577326 0.15282,-0.577326 l -1.12069,0.03396 z"
         id="path375"
         sodipodi:nodetypes="csccc" />
      <path
         style="opacity:1;fill:#05b6c8;fill-opacity:1;stroke:#05b6c8;stroke-width:0.1;stroke-linecap:round;stroke-dasharray:none;stroke-opacity:1"
         d="m 103.4262,51.059362 c 0.35658,-0.984848 0.5943,-0.781087 0.83203,-0.23772 0.23772,0.543364 -0.13584,-1.460296 -0.13584,-1.460296 l -0.95089,0.118861 z"
         id="path376"
         sodipodi:nodetypes="csccc" />
      <path
         style="opacity:1;fill:#05b6c8;fill-opacity:1;stroke:#05b6c8;stroke-width:0.1;stroke-linecap:round;stroke-dasharray:none;stroke-opacity:1"
         d="m 104.63179,61.417266 c 1.27352,-0.882969 0.91693,0.356584 0.96787,0.526385 0.21184,0.706128 0.57733,-1.833859 0.57733,-1.833859 l -1.39238,0.288664 z"
         id="path377"
         sodipodi:nodetypes="csccc" />
      <path
         style="opacity:1;fill:#05b6c8;fill-opacity:1;stroke:#05b6c8;stroke-width:0.1;stroke-linecap:round;stroke-dasharray:none;stroke-opacity:1"
         d="m 101.08294,70.654478 c 0.47545,0.05094 1.74895,-0.458465 1.10371,0.560344 -0.10359,0.163561 0.73015,-1.13767 0.73015,-1.13767 l -0.73015,-0.169802 z"
         id="path378"
         sodipodi:nodetypes="csccc" />
      <path
         style="opacity:1;fill:#05b6c8;fill-opacity:1;stroke:#05b6c8;stroke-width:0.1;stroke-linecap:round;stroke-dasharray:none;stroke-opacity:1"
         d="m 93.221121,77.361644 c 0.339603,0.118862 1.511234,0.933908 0.18678,1.392373 -1.324451,0.458464 1.748957,-0.475446 1.748957,-0.475446 l -0.492424,-0.865987 z"
         id="path379" />
      <path
         style="opacity:1;fill:#05b6c8;fill-opacity:1;stroke:#05b6c8;stroke-width:0.1;stroke-linecap:round;stroke-dasharray:none;stroke-opacity:1"
         d="m 81.555744,80.316194 c 0.271683,0.509405 0.373564,1.018809 -0.305643,0.950887 -0.916282,-0.09163 1.477275,0.322623 1.477275,0.322623 l -0.06792,-0.798068 z"
         id="path380"
         sodipodi:nodetypes="csccc" />
      <path
         style="opacity:1;fill:#05b6c8;fill-opacity:1;stroke:#05b6c8;stroke-width:0.1;stroke-linecap:round;stroke-dasharray:none;stroke-opacity:1"
         d="m 70.246953,76.937139 c 0.203761,0.441484 0.135842,1.15465 -0.679207,0.543365 -0.502797,-0.377096 0.83203,0.88297 0.83203,0.88297 0,0 0.662224,-0.492425 0.662224,-0.611286 0,-0.118862 -0.815047,-0.815049 -0.815047,-0.815049 z"
         id="path381"
         sodipodi:nodetypes="cscsc" />
      <path
         style="opacity:1;fill:#05b6c8;fill-opacity:1;stroke:#05b6c8;stroke-width:0.1;stroke-linecap:round;stroke-dasharray:none;stroke-opacity:1"
         d="m 61.519146,68.599877 c -0.03396,0.628267 -0.186781,1.647077 -0.815046,0.713166 -0.368055,-0.547112 0.441483,1.324454 0.441483,1.324454 l 0.696188,-0.713166 z"
         id="path382"
         sodipodi:nodetypes="csccc" />
      <path
         style="opacity:1;fill:#05b6c8;fill-opacity:1;stroke:#05b6c8;stroke-width:0.1;stroke-linecap:round;stroke-dasharray:none;stroke-opacity:1"
         d="m 56.628858,56.73074 c -0.254702,0.526385 -0.594305,0.662226 -0.730147,-0.118861 -0.13584,-0.781087 -0.13584,1.714998 -0.13584,1.714998 l 0.798068,0.03396 z"
         id="path383"
         sodipodi:nodetypes="csccc" />
      <path
         style="opacity:1;fill:#05b6c8;fill-opacity:1;stroke:#05b6c8;stroke-width:0.1;stroke-linecap:round;stroke-dasharray:none;stroke-opacity:1"
         d="m 58.157073,43.520169 c -0.526384,0.373564 -0.560346,-0.271683 -0.18678,-1.409354 0.373562,-1.137671 -1.409354,2.665887 -1.409354,2.665887 l 1.12069,-0.06792 z"
         id="path384"
         sodipodi:nodetypes="csccc" />
      <path
         style="opacity:1;fill:#05b6c8;fill-opacity:1;stroke:#05b6c8;stroke-width:0.1;stroke-linecap:round;stroke-dasharray:none;stroke-opacity:1"
         d="m 91.404243,64.93216 c 0.339603,0.05094 0.882968,0.526386 0.458462,0.849008 -0.424503,0.322625 1.018813,-0.339603 1.018813,-0.339603 l -0.492427,-0.611286 z"
         id="path385"
         sodipodi:nodetypes="csccc" />
      <path
         style="opacity:1;fill:#05b6c8;fill-opacity:1;stroke:#05b6c8;stroke-width:0.1;stroke-linecap:round;stroke-dasharray:none;stroke-opacity:1"
         d="m 94.358792,60.75504 c 0.611286,-0.186783 0.730147,0.203761 0.645245,0.560345 -0.0849,0.356584 0.798068,-1.273514 0.798068,-1.273514 l -0.91693,0.101883 z"
         id="path386" />
      <path
         style="opacity:1;fill:#05b6c8;fill-opacity:1;stroke:#05b6c8;stroke-width:0.1;stroke-linecap:round;stroke-dasharray:none;stroke-opacity:1"
         d="m 94.443692,56.153414 c 0.288663,-0.322622 0.832027,-0.373565 0.950888,0.203761 0.118862,0.577326 0.152824,-1.375394 0.152824,-1.375394 l -0.849009,0.373565 z"
         id="path387" />
      <path
         style="opacity:1;fill:#05b6c8;fill-opacity:1;stroke:#05b6c8;stroke-width:0.1;stroke-linecap:round;stroke-dasharray:none;stroke-opacity:1"
         d="m 92.779635,52.010254 c 0.101883,-0.475446 0.526385,-0.373565 0.764108,-0.169802 0.237723,0.203761 -0.0849,-0.713168 -0.0849,-0.713168 l -0.645245,-0.06792 z"
         id="path388" />
      <path
         style="opacity:1;fill:#05b6c8;fill-opacity:1;stroke:#05b6c8;stroke-width:0.1;stroke-linecap:round;stroke-dasharray:none;stroke-opacity:1"
         d="m 90.334491,49.938673 c 0.118861,-0.407524 0.492426,-0.526387 0.730146,-0.390544 0.237723,0.135842 -0.424503,-0.832028 -0.424503,-0.832028 l -0.662225,0.441484 z"
         id="path389"
         sodipodi:nodetypes="csccc" />
      <path
         style="opacity:1;fill:#05b6c8;fill-opacity:1;stroke:#05b6c8;stroke-width:0.1;stroke-linecap:round;stroke-dasharray:none;stroke-opacity:1"
         d="m 86.802615,49.242485 c -0.06792,-0.390544 0.254704,-0.713166 0.798068,-0.662226 0.543367,0.05094 -1.001829,-0.305644 -1.001829,-0.305644 l -0.186782,0.645247 z"
         id="path390" />
    </g>
  </g>
</svg>
